<svg xmlns="http://www.w3.org/2000/svg" xmlns:xlink="http://www.w3.org/1999/xlink" width="456" zoomAndPan="magnify" viewBox="0 0 342 341.999987" height="456" preserveAspectRatio="xMidYMid meet" version="1.0"><defs><g/><clipPath id="266ba599db"><path d="M 130 70 L 255 70 L 255 241 L 130 241 Z M 130 70 " clip-rule="nonzero"/></clipPath><clipPath id="e471415e91"><path d="M 165.835938 67.179688 L 258.324219 90.839844 L 219.136719 244.023438 L 126.648438 220.359375 Z M 165.835938 67.179688 " clip-rule="nonzero"/></clipPath><clipPath id="c74ac4ecf5"><path d="M 181.097656 71.082031 L 243.066406 86.9375 C 247.113281 87.972656 250.582031 90.570312 252.710938 94.164062 C 254.84375 97.757812 255.457031 102.050781 254.421875 106.097656 L 223.105469 228.511719 C 222.070312 232.558594 219.46875 236.027344 215.875 238.15625 C 212.28125 240.285156 207.988281 240.902344 203.941406 239.867188 L 141.972656 224.011719 C 137.925781 222.976562 134.453125 220.375 132.324219 216.78125 C 130.195312 213.1875 129.582031 208.894531 130.617188 204.847656 L 161.933594 82.4375 C 162.96875 78.390625 165.570312 74.921875 169.164062 72.789062 C 172.757812 70.660156 177.050781 70.046875 181.097656 71.082031 Z M 181.097656 71.082031 " clip-rule="nonzero"/></clipPath><clipPath id="20e71792ed"><path d="M 0 0 L 125 0 L 125 170.960938 L 0 170.960938 Z M 0 0 " clip-rule="nonzero"/></clipPath><clipPath id="69d57d0e3f"><path d="M 35.835938 -2.820312 L 128.324219 20.839844 L 89.136719 174.023438 L -3.351562 150.359375 Z M 35.835938 -2.820312 " clip-rule="nonzero"/></clipPath><clipPath id="e6dbcbe44e"><path d="M 51.097656 1.082031 L 113.066406 16.9375 C 117.113281 17.972656 120.582031 20.570312 122.710938 24.164062 C 124.84375 27.757812 125.457031 32.050781 124.421875 36.097656 L 93.105469 158.511719 C 92.070312 162.558594 89.46875 166.027344 85.875 168.15625 C 82.28125 170.285156 77.988281 170.902344 73.941406 169.867188 L 11.972656 154.011719 C 7.925781 152.976562 4.453125 150.375 2.324219 146.78125 C 0.195312 143.1875 -0.417969 138.894531 0.617188 134.847656 L 31.933594 12.4375 C 32.96875 8.390625 35.570312 4.921875 39.164062 2.789062 C 42.757812 0.660156 47.050781 0.046875 51.097656 1.082031 Z M 51.097656 1.082031 " clip-rule="nonzero"/></clipPath><clipPath id="4e7879f105"><rect x="0" width="125" y="0" height="171"/></clipPath><clipPath id="9b2a04643b"><path d="M 130 70 L 255 70 L 255 241 L 130 241 Z M 130 70 " clip-rule="nonzero"/></clipPath><clipPath id="07363ca289"><path d="M 165.835938 67.179688 L 258.117188 90.785156 L 219.078125 243.371094 L 126.800781 219.761719 Z M 165.835938 67.179688 " clip-rule="nonzero"/></clipPath><clipPath id="8c5bc175ee"><path d="M 165.835938 67.179688 L 259.472656 91.136719 L 220.160156 244.796875 L 126.523438 220.839844 Z M 165.835938 67.179688 " clip-rule="nonzero"/></clipPath><clipPath id="8e2ef10b10"><path d="M 181.09375 71.085938 L 243.0625 86.9375 C 247.109375 87.972656 250.578125 90.574219 252.707031 94.167969 C 254.835938 97.761719 255.449219 102.054688 254.414062 106.097656 L 223.101562 228.503906 C 222.0625 232.550781 219.464844 236.019531 215.871094 238.148438 C 212.277344 240.277344 207.984375 240.894531 203.9375 239.859375 L 141.972656 224.003906 C 137.925781 222.96875 134.457031 220.367188 132.324219 216.777344 C 130.195312 213.183594 129.582031 208.890625 130.617188 204.84375 L 161.933594 82.4375 C 162.96875 78.390625 165.570312 74.921875 169.164062 72.792969 C 172.753906 70.664062 177.046875 70.050781 181.09375 71.085938 Z M 181.09375 71.085938 " clip-rule="nonzero"/></clipPath><clipPath id="bc6e97dd33"><path d="M 93 67 L 211 67 L 211 236 L 93 236 Z M 93 67 " clip-rule="nonzero"/></clipPath><clipPath id="2e6a5fd0b9"><path d="M 91.363281 82.300781 L 185.296875 65.253906 L 213.53125 220.828125 L 119.601562 237.878906 Z M 91.363281 82.300781 " clip-rule="nonzero"/></clipPath><clipPath id="460d4f183c"><path d="M 106.863281 79.488281 L 169.800781 68.066406 C 173.910156 67.320312 178.148438 68.238281 181.582031 70.617188 C 185.015625 72.996094 187.363281 76.640625 188.109375 80.75 L 210.671875 205.074219 C 211.417969 209.183594 210.503906 213.421875 208.125 216.855469 C 205.746094 220.289062 202.097656 222.636719 197.988281 223.382812 L 135.050781 234.808594 C 130.941406 235.554688 126.703125 234.636719 123.269531 232.257812 C 119.835938 229.878906 117.488281 226.234375 116.742188 222.121094 L 94.175781 97.800781 C 93.429688 93.691406 94.347656 89.453125 96.726562 86.019531 C 99.105469 82.585938 102.75 80.234375 106.863281 79.488281 Z M 106.863281 79.488281 " clip-rule="nonzero"/></clipPath><clipPath id="62bf7e76c2"><path d="M 0.359375 0.199219 L 118 0.199219 L 118 168.679688 L 0.359375 168.679688 Z M 0.359375 0.199219 " clip-rule="nonzero"/></clipPath><clipPath id="10a3d794c5"><path d="M -1.636719 15.300781 L 92.296875 -1.746094 L 120.53125 153.828125 L 26.601562 170.878906 Z M -1.636719 15.300781 " clip-rule="nonzero"/></clipPath><clipPath id="23f1e37fc4"><path d="M 13.863281 12.488281 L 76.800781 1.066406 C 80.910156 0.320312 85.148438 1.238281 88.582031 3.617188 C 92.015625 5.996094 94.363281 9.640625 95.109375 13.75 L 117.671875 138.074219 C 118.417969 142.183594 117.503906 146.421875 115.125 149.855469 C 112.746094 153.289062 109.097656 155.636719 104.988281 156.382812 L 42.050781 167.808594 C 37.941406 168.554688 33.703125 167.636719 30.269531 165.257812 C 26.835938 162.878906 24.488281 159.234375 23.742188 155.121094 L 1.175781 30.800781 C 0.429688 26.691406 1.347656 22.453125 3.726562 19.019531 C 6.105469 15.585938 9.75 13.234375 13.863281 12.488281 Z M 13.863281 12.488281 " clip-rule="nonzero"/></clipPath><clipPath id="546aba28b0"><rect x="0" width="118" y="0" height="169"/></clipPath><clipPath id="c7087c4743"><path d="M 93 67 L 211 67 L 211 236 L 93 236 Z M 93 67 " clip-rule="nonzero"/></clipPath><clipPath id="e47168291c"><path d="M 91.363281 82.300781 L 185.082031 65.292969 L 213.210938 220.261719 L 119.492188 237.269531 Z M 91.363281 82.300781 " clip-rule="nonzero"/></clipPath><clipPath id="a7fe0ebd3f"><path d="M 91.363281 82.304688 L 186.464844 65.046875 L 214.789062 221.105469 L 119.6875 238.363281 Z M 91.363281 82.304688 " clip-rule="nonzero"/></clipPath><clipPath id="62e4e6ca69"><path d="M 106.859375 79.492188 L 169.796875 68.070312 C 173.90625 67.324219 178.144531 68.242188 181.578125 70.621094 C 185.011719 73 187.359375 76.644531 188.105469 80.753906 L 210.667969 205.070312 C 211.414062 209.179688 210.496094 213.417969 208.117188 216.851562 C 205.738281 220.285156 202.09375 222.632812 197.984375 223.378906 L 135.046875 234.800781 C 130.9375 235.546875 126.703125 234.628906 123.269531 232.25 C 119.835938 229.871094 117.484375 226.226562 116.742188 222.117188 L 94.175781 97.800781 C 93.433594 93.691406 94.347656 89.453125 96.726562 86.019531 C 99.105469 82.585938 102.75 80.238281 106.859375 79.492188 Z M 106.859375 79.492188 " clip-rule="nonzero"/></clipPath><clipPath id="53b586ef15"><rect x="0" width="217" y="0" height="43"/></clipPath></defs><rect x="-34.2" width="410.4" fill="#ffffff" y="-34.199999" height="410.399984" fill-opacity="1"/><rect x="-34.2" width="410.4" fill="#ffffff" y="-34.199999" height="410.399984" fill-opacity="1"/><g clip-path="url(#266ba599db)"><g clip-path="url(#e471415e91)"><g clip-path="url(#c74ac4ecf5)"><g transform="matrix(1, 0, 0, 1, 130, 70)"><g clip-path="url(#4e7879f105)"><g clip-path="url(#20e71792ed)"><g clip-path="url(#69d57d0e3f)"><g clip-path="url(#e6dbcbe44e)"><path fill="#0101ab" d="M 35.835938 -2.820312 L 128.324219 20.839844 L 89.226562 173.660156 L -3.261719 150 Z M 35.835938 -2.820312 " fill-opacity="1" fill-rule="nonzero"/></g></g></g></g></g></g></g></g><g clip-path="url(#9b2a04643b)"><g clip-path="url(#07363ca289)"><g clip-path="url(#8c5bc175ee)"><g clip-path="url(#8e2ef10b10)"><path stroke-linecap="butt" transform="matrix(0.726598, 0.185891, -0.185891, 0.726598, 165.837416, 67.178109)" fill="none" stroke-linejoin="miter" d="M 20.998494 0.00603919 L 106.283889 0.0029245 C 111.853449 0.00268038 117.193885 2.216865 121.131496 6.15547 C 125.069108 10.094076 127.280015 15.436757 127.278968 21.001272 L 127.283741 189.465011 C 127.27894 195.035862 125.069801 200.375006 121.131195 204.312618 C 117.19259 208.250229 111.851199 210.466182 106.281639 210.466426 L 20.999998 210.463204 C 15.430438 210.463448 10.090003 208.249264 6.148636 204.316995 C 2.211025 200.378389 0.000117852 195.035708 -0.000126266 189.466148 L 0.000146289 21.001118 C -0.0000978282 15.431558 2.214087 10.091122 6.152692 6.153511 C 10.086252 2.21719 15.428933 0.0062833 20.998494 0.00603919 Z M 20.998494 0.00603919 " stroke="#010169" stroke-width="22" stroke-opacity="1" stroke-miterlimit="4"/></g></g></g></g><g clip-path="url(#bc6e97dd33)"><g clip-path="url(#2e6a5fd0b9)"><g clip-path="url(#460d4f183c)"><g transform="matrix(1, 0, 0, 1, 93, 67)"><g clip-path="url(#546aba28b0)"><g clip-path="url(#62bf7e76c2)"><g clip-path="url(#10a3d794c5)"><g clip-path="url(#23f1e37fc4)"><path fill="#118938" d="M -1.636719 15.300781 L 92.296875 -1.746094 L 120.464844 153.460938 L 26.535156 170.511719 Z M -1.636719 15.300781 " fill-opacity="1" fill-rule="nonzero"/></g></g></g></g></g></g></g></g><g clip-path="url(#c7087c4743)"><g clip-path="url(#e47168291c)"><g clip-path="url(#a7fe0ebd3f)"><g clip-path="url(#62e4e6ca69)"><path stroke-linecap="butt" transform="matrix(0.737944, -0.133934, 0.133934, 0.737944, 91.364553, 82.302701)" fill="none" stroke-linejoin="miter" d="M 20.996869 0.00227308 L 106.284238 0.00361491 C 111.852979 0.00327504 117.194612 2.216714 121.132718 6.155158 C 125.070824 10.093602 127.282937 15.433854 127.283277 21.002595 L 127.28273 189.465645 C 127.283069 195.034386 125.069631 200.376019 121.131187 204.314126 C 117.192743 208.252232 111.852491 210.464345 106.283749 210.464684 L 20.996381 210.463343 C 15.427639 210.463682 10.091131 208.251174 6.153025 204.31273 C 2.214918 200.374286 -0.00231894 195.033104 0.00246581 189.465293 L -0.0021114 21.001312 C 0.00267335 15.433501 2.210987 10.090938 6.149431 6.152832 C 10.087875 2.214726 15.428127 0.00261294 20.996869 0.00227308 Z M 20.996869 0.00227308 " stroke="#0b5222" stroke-width="22" stroke-opacity="1" stroke-miterlimit="4"/></g></g></g></g><g transform="matrix(1, 0, 0, 1, 63, 235)"><g clip-path="url(#53b586ef15)"><g fill="#0101ab" fill-opacity="1"><g transform="translate(0.268116, 33.569398)"><g><path d="M 2.328125 -23.96875 L 20.234375 -23.96875 L 20.203125 -19.046875 L 8.578125 -19.046875 L 8.578125 -13.609375 L 19.3125 -13.609375 L 19.3125 -8.71875 L 8.578125 -8.71875 L 8.578125 0 L 2.328125 0 Z M 2.328125 -23.96875 "/></g></g></g><g fill="#0101ab" fill-opacity="1"><g transform="translate(21.019452, 33.569398)"><g><path d="M 2.328125 -23.96875 L 8.578125 -23.96875 L 8.578125 -5.265625 L 18.734375 -5.265625 L 18.734375 0 L 2.328125 0 Z M 2.328125 -23.96875 "/></g></g></g><g fill="#0101ab" fill-opacity="1"><g transform="translate(40.369131, 33.569398)"><g><path d="M 10.125 -23.96875 L 16.546875 -23.96875 L 26.59375 0 L 19.9375 0 L 13.15625 -17.703125 L 6.25 0 L -0.171875 0 Z M 5.984375 -9.03125 L 19.96875 -9.03125 L 19.96875 -4.3125 L 5.984375 -4.3125 Z M 5.984375 -9.03125 "/></g></g></g><g fill="#0101ab" fill-opacity="1"><g transform="translate(66.6929, 33.569398)"><g><path d="M 18.84375 -16.8125 C 18 -17.34375 17.101562 -17.796875 16.15625 -18.171875 C 15.207031 -18.546875 14.296875 -18.84375 13.421875 -19.0625 C 12.546875 -19.28125 11.773438 -19.390625 11.109375 -19.390625 C 10.359375 -19.390625 9.753906 -19.242188 9.296875 -18.953125 C 8.835938 -18.671875 8.609375 -18.234375 8.609375 -17.640625 C 8.609375 -17.046875 8.832031 -16.5625 9.28125 -16.1875 C 9.726562 -15.8125 10.328125 -15.5 11.078125 -15.25 C 11.828125 -15 12.65625 -14.75 13.5625 -14.5 C 14.476562 -14.25 15.378906 -13.953125 16.265625 -13.609375 C 17.160156 -13.265625 17.984375 -12.820312 18.734375 -12.28125 C 19.484375 -11.75 20.085938 -11.0625 20.546875 -10.21875 C 21.003906 -9.375 21.234375 -8.328125 21.234375 -7.078125 C 21.234375 -5.460938 20.796875 -4.097656 19.921875 -2.984375 C 19.054688 -1.878906 17.894531 -1.046875 16.4375 -0.484375 C 14.976562 0.0664062 13.363281 0.34375 11.59375 0.34375 C 10.25 0.34375 8.910156 0.191406 7.578125 -0.109375 C 6.242188 -0.421875 4.976562 -0.867188 3.78125 -1.453125 C 2.582031 -2.035156 1.503906 -2.722656 0.546875 -3.515625 L 2.96875 -8.34375 C 3.789062 -7.613281 4.710938 -6.972656 5.734375 -6.421875 C 6.765625 -5.878906 7.800781 -5.453125 8.84375 -5.140625 C 9.894531 -4.835938 10.832031 -4.6875 11.65625 -4.6875 C 12.59375 -4.6875 13.328125 -4.863281 13.859375 -5.21875 C 14.398438 -5.570312 14.671875 -6.085938 14.671875 -6.765625 C 14.671875 -7.359375 14.441406 -7.84375 13.984375 -8.21875 C 13.523438 -8.59375 12.921875 -8.90625 12.171875 -9.15625 C 11.421875 -9.40625 10.59375 -9.648438 9.6875 -9.890625 C 8.789062 -10.128906 7.890625 -10.414062 6.984375 -10.75 C 6.085938 -11.082031 5.265625 -11.503906 4.515625 -12.015625 C 3.765625 -12.523438 3.164062 -13.191406 2.71875 -14.015625 C 2.269531 -14.835938 2.046875 -15.863281 2.046875 -17.09375 C 2.046875 -18.570312 2.4375 -19.863281 3.21875 -20.96875 C 4.007812 -22.070312 5.128906 -22.925781 6.578125 -23.53125 C 8.023438 -24.132812 9.707031 -24.4375 11.625 -24.4375 C 13.375 -24.4375 15.09375 -24.1875 16.78125 -23.6875 C 18.46875 -23.1875 19.941406 -22.539062 21.203125 -21.75 Z M 18.84375 -16.8125 "/></g></g></g><g fill="#0101ab" fill-opacity="1"><g transform="translate(88.777513, 33.569398)"><g><path d="M 2.328125 -23.96875 L 8.578125 -23.96875 L 8.578125 -14.15625 L 18.25 -14.15625 L 18.25 -23.96875 L 24.515625 -23.96875 L 24.515625 0 L 18.25 0 L 18.25 -9.234375 L 8.578125 -9.234375 L 8.578125 0 L 2.328125 0 Z M 2.328125 -23.96875 "/></g></g></g><g fill="#8ea0ef" fill-opacity="1"><g transform="translate(115.618774, 33.569398)"><g><path d="M 20.484375 -17.703125 C 19.609375 -18.660156 18.578125 -19.410156 17.390625 -19.953125 C 16.210938 -20.503906 15.019531 -20.78125 13.8125 -20.78125 C 12.625 -20.78125 11.507812 -20.554688 10.46875 -20.109375 C 9.4375 -19.671875 8.523438 -19.050781 7.734375 -18.25 C 6.953125 -17.457031 6.34375 -16.53125 5.90625 -15.46875 C 5.476562 -14.40625 5.265625 -13.257812 5.265625 -12.03125 C 5.265625 -10.820312 5.476562 -9.6875 5.90625 -8.625 C 6.34375 -7.570312 6.953125 -6.644531 7.734375 -5.84375 C 8.523438 -5.050781 9.4375 -4.425781 10.46875 -3.96875 C 11.507812 -3.507812 12.625 -3.28125 13.8125 -3.28125 C 15.019531 -3.28125 16.203125 -3.535156 17.359375 -4.046875 C 18.523438 -4.566406 19.566406 -5.269531 20.484375 -6.15625 L 22.875 -3.65625 C 22.070312 -2.863281 21.160156 -2.171875 20.140625 -1.578125 C 19.128906 -0.984375 18.070312 -0.523438 16.96875 -0.203125 C 15.863281 0.117188 14.742188 0.28125 13.609375 0.28125 C 11.847656 0.28125 10.21875 -0.03125 8.71875 -0.65625 C 7.21875 -1.289062 5.898438 -2.164062 4.765625 -3.28125 C 3.640625 -4.394531 2.753906 -5.695312 2.109375 -7.1875 C 1.472656 -8.6875 1.15625 -10.289062 1.15625 -12 C 1.15625 -13.707031 1.472656 -15.296875 2.109375 -16.765625 C 2.753906 -18.234375 3.648438 -19.523438 4.796875 -20.640625 C 5.953125 -21.765625 7.285156 -22.632812 8.796875 -23.25 C 10.316406 -23.863281 11.96875 -24.171875 13.75 -24.171875 C 14.882812 -24.171875 16 -24.019531 17.09375 -23.71875 C 18.1875 -23.425781 19.222656 -23.003906 20.203125 -22.453125 C 21.179688 -21.910156 22.0625 -21.253906 22.84375 -20.484375 Z M 20.484375 -17.703125 "/></g></g></g><g fill="#8ea0ef" fill-opacity="1"><g transform="translate(139.275979, 33.569398)"><g><path d="M 10.59375 -23.9375 L 14.734375 -23.9375 L 25.203125 0 L 20.890625 0 L 12.546875 -19.859375 L 4.234375 0 L 0.03125 0 Z M 5.296875 -8.953125 L 19.625 -8.953125 L 19.625 -5.53125 L 5.296875 -5.53125 Z M 5.296875 -8.953125 "/></g></g></g><g fill="#8ea0ef" fill-opacity="1"><g transform="translate(164.505778, 33.569398)"><g><path d="M 12.859375 -23.9375 C 15.929688 -23.9375 18.304688 -23.222656 19.984375 -21.796875 C 21.660156 -20.367188 22.5 -18.367188 22.5 -15.796875 C 22.5 -13.109375 21.660156 -11.015625 19.984375 -9.515625 C 18.304688 -8.023438 15.929688 -7.28125 12.859375 -7.28125 L 7.171875 -7.28125 L 7.171875 0 L 3.140625 0 L 3.140625 -23.9375 Z M 12.859375 -10.734375 C 14.703125 -10.734375 16.128906 -11.132812 17.140625 -11.9375 C 18.160156 -12.75 18.671875 -14 18.671875 -15.6875 C 18.671875 -17.3125 18.160156 -18.515625 17.140625 -19.296875 C 16.128906 -20.085938 14.703125 -20.484375 12.859375 -20.484375 L 7.171875 -20.484375 L 7.171875 -10.734375 Z M 12.984375 -8.859375 L 16.953125 -8.859375 L 22.90625 0 L 18.328125 0 Z M 12.984375 -8.859375 "/></g></g></g><g fill="#8ea0ef" fill-opacity="1"><g transform="translate(189.222772, 33.569398)"><g><path d="M 12.953125 -23.9375 C 14.753906 -23.9375 16.40625 -23.640625 17.90625 -23.046875 C 19.414062 -22.453125 20.722656 -21.617188 21.828125 -20.546875 C 22.929688 -19.472656 23.789062 -18.207031 24.40625 -16.75 C 25.019531 -15.289062 25.328125 -13.695312 25.328125 -11.96875 C 25.328125 -10.238281 25.019531 -8.648438 24.40625 -7.203125 C 23.789062 -5.753906 22.925781 -4.488281 21.8125 -3.40625 C 20.695312 -2.320312 19.375 -1.484375 17.84375 -0.890625 C 16.320312 -0.296875 14.660156 0 12.859375 0 L 3.140625 0 L 3.140625 -23.9375 Z M 13.0625 -3.453125 C 14.21875 -3.453125 15.289062 -3.65625 16.28125 -4.0625 C 17.28125 -4.476562 18.148438 -5.066406 18.890625 -5.828125 C 19.628906 -6.585938 20.207031 -7.484375 20.625 -8.515625 C 21.050781 -9.554688 21.265625 -10.695312 21.265625 -11.9375 C 21.265625 -13.1875 21.046875 -14.328125 20.609375 -15.359375 C 20.179688 -16.398438 19.585938 -17.304688 18.828125 -18.078125 C 18.078125 -18.859375 17.195312 -19.453125 16.1875 -19.859375 C 15.175781 -20.273438 14.078125 -20.484375 12.890625 -20.484375 L 7.171875 -20.484375 L 7.171875 -3.453125 Z M 13.0625 -3.453125 "/></g></g></g></g></g></svg>